<svg width="76" height="23" viewBox="0 0 76 23" fill="none" xmlns="http://www.w3.org/2000/svg">
<path d="M6.61298 8.43402C7.32488 8.43402 7.97206 8.8271 7.97206 9.67879H5.12446C5.27546 8.8271 5.81478 8.43402 6.61298 8.43402ZM12.5671 12.6706H7.49746C7.32488 13.0418 7.00128 13.3913 6.37568 13.3913C5.72849 13.3913 5.14603 13.0418 5.08131 11.7971H12.7612C12.8044 11.4913 12.8259 11.1419 12.8259 10.8362C12.8259 6.97087 10.2588 4.6342 6.61298 4.6342C2.96718 4.6342 0.400024 7.01455 0.400024 10.9454C0.400024 14.8762 2.96718 17.2566 6.61298 17.2566C9.67631 17.2566 12.0493 15.2912 12.5671 12.6706Z" fill="black"/>
<path d="M14.3406 17.1037H19.1297V0.943573H14.3406V17.1037Z" fill="black"/>
<path d="M27.6135 11.0327L25.3268 4.78707H19.9984L25.068 16.4923L22.0046 23H27.2468L35.0346 4.78707H29.7492L27.6135 11.0327Z" fill="black"/>
<path d="M36.6473 12.0591C36.6473 15.8808 38.8046 17.1037 41.6522 17.1037H43.4643V12.9763H42.3209C41.6953 12.9763 41.4364 12.7143 41.4364 12.1465V8.8271H43.4211V4.78707H41.4364V1.81709H36.6473V4.78707H35.1372V8.8271H36.6473V12.0591Z" fill="black"/>
<path d="M45.2882 17.1037H50.0773V4.78707H45.2882V17.1037Z" fill="black"/>
<path d="M51.5932 10.9454C51.5932 14.8762 54.1603 17.2566 57.8061 17.2566C60.9342 17.2566 63.2856 15.3785 63.868 12.1465H58.7985C58.6259 12.7361 58.3023 13.1074 57.6982 13.1074C56.9648 13.1074 56.447 12.4304 56.447 10.9454C56.447 9.46041 56.9648 8.78343 57.6982 8.78343C58.3023 8.78343 58.6259 9.15467 58.7985 9.7443H63.868C63.2856 6.51227 60.9342 4.6342 57.8061 4.6342C54.1603 4.6342 51.5932 7.01455 51.5932 10.9454Z" fill="black"/>
<path d="M75.9784 13.4131C75.9784 8.67424 69.6145 10.0937 69.6145 8.56505C69.6145 8.1938 69.8949 7.99726 70.3695 7.99726C71.1462 7.99726 71.6208 8.39034 71.7502 9.04548H76C75.6549 6.62146 73.9506 4.6342 70.4774 4.6342C67.0473 4.6342 65.2999 6.4686 65.2999 8.69607C65.2999 13.2165 71.5776 11.7316 71.5776 13.3476C71.5776 13.6533 71.2756 13.9154 70.7794 13.9154C70.0459 13.9154 69.4635 13.5878 69.3556 12.8453H64.7606C64.9764 15.3567 67.2846 17.2566 70.801 17.2566C74.0369 17.2566 75.9784 15.5969 75.9784 13.4131Z" fill="black"/>
</svg>
