<svg width="40" height="32" viewBox="0 0 40 32" fill="none" xmlns="http://www.w3.org/2000/svg">
<g style="mix-blend-mode:multiply">
<path d="M0 16C0 7.16344 7.16345 0 16 0H27.8316C30.0407 0 31.8316 1.79086 31.8316 4V24C31.8316 28.4183 28.2499 32 23.8316 32H4C1.79086 32 0 30.2091 0 28V16Z" fill="#DF19FF"/>
</g>
<g style="mix-blend-mode:multiply">
<path d="M7.95789 8C7.95789 3.58172 11.5396 0 15.9579 0H35.7895C37.9986 0 39.7895 1.79086 39.7895 4V16C39.7895 24.8366 32.626 32 23.7895 32H11.9579C9.74874 32 7.95789 30.2091 7.95789 28V16V8Z" fill="#329DFF"/>
</g>
</svg>
